<svg version="1.1" viewBox="0.0 0.0 960.0 720.0" fill="none" stroke="none" stroke-linecap="square" stroke-miterlimit="10" xmlns:xlink="http://www.w3.org/1999/xlink" xmlns="http://www.w3.org/2000/svg"><clipPath id="p.0"><path d="m0 0l960.0 0l0 720.0l-960.0 0l0 -720.0z" clip-rule="nonzero"/></clipPath><g clip-path="url(#p.0)"><path fill="#000000" fill-opacity="0.0" d="m0 0l960.0 0l0 720.0l-960.0 0z" fill-rule="evenodd"/><path fill="#000000" d="m66.0181 265.3535l-34.283466 19.763794l-0.01574707 -39.574814z" fill-rule="evenodd"/><path stroke="#000000" stroke-width="1.0" stroke-linejoin="round" stroke-linecap="butt" d="m66.0181 265.3535l-34.283466 19.763794l-0.01574707 -39.574814z" fill-rule="evenodd"/><path fill="#000000" d="m71.40261 256.0198l-34.299213 -19.81102l111.68504 -193.44882l34.29921 19.811024z" fill-rule="evenodd"/><path stroke="#000000" stroke-width="1.0" stroke-linejoin="round" stroke-linecap="butt" d="m71.40261 256.0198l-34.299213 -19.81102l111.68504 -193.44882l34.29921 19.811024z" fill-rule="evenodd"/><path fill="#000000" d="m188.47217 53.2494l-34.29921 -19.811024l8.377945 -14.456694l34.29921 19.811022z" fill-rule="evenodd"/><path stroke="#000000" stroke-width="1.0" stroke-linejoin="round" stroke-linecap="butt" d="m188.47217 53.2494l-34.29921 -19.811024l8.377945 -14.456694l34.29921 19.811022z" fill-rule="evenodd"/></g></svg>